<svg width="151" height="24" viewBox="0 0 151 24" fill="none" xmlns="http://www.w3.org/2000/svg">
<mask id="mask0" mask-type="alpha" maskUnits="userSpaceOnUse" x="40" y="2" width="10" height="18">
<path fill-rule="evenodd" clip-rule="evenodd" d="M42.4039 9.53389H40.697V5.94283H42.5332V2.0054H46.878V5.94283H49.6712V9.53389H46.878V13.737C46.878 15.28 48.4041 15.4927 49.2574 15.4927C49.6197 15.4927 49.8523 15.4663 49.8523 15.4663V19.4568C49.8523 19.4568 49.3607 19.5364 48.6368 19.5364C46.516 19.5364 42.4039 18.9511 42.4039 14.349V9.53389Z" fill="white"/>
</mask>
<g mask="url(#mask0)">
<path fill-rule="evenodd" clip-rule="evenodd" d="M40.6941 19.5364H49.8519V2.00537H40.6941V19.5364Z" fill="#2F2E46"/>
</g>
<mask id="mask1" mask-type="alpha" maskUnits="userSpaceOnUse" x="51" y="5" width="13" height="15">
<path fill-rule="evenodd" clip-rule="evenodd" d="M57.0125 16.1489C58.1788 16.1489 59.2156 14.8432 59.2156 13.7241V13.4309H58.8012C57.3753 13.4309 55.7421 13.8576 55.7421 15.0031C55.7421 15.6425 56.1313 16.1489 57.0125 16.1489ZM58.9822 10.7933H59.1638V10.5536C59.1638 9.40781 58.3082 9.03487 57.1938 9.03487C55.5087 9.03487 53.5907 10.3403 53.5907 10.3403L52.0355 7.08976C52.0355 7.08976 54.3423 5.3046 57.6346 5.3046C61.3929 5.3046 63.6481 7.40927 63.6481 10.8998V19.346H59.5526V18.52C59.5526 18.0673 59.6045 17.6676 59.6045 17.6676H59.5526C59.5526 17.6676 58.5674 19.6658 55.7682 19.6658C53.2795 19.6658 51.2319 17.9604 51.2319 15.2427C51.2319 11.2464 56.9086 10.7933 58.9822 10.7933Z" fill="white"/>
</mask>
<g mask="url(#mask1)">
<path fill-rule="evenodd" clip-rule="evenodd" d="M51.2319 19.6658H63.6481V5.3046H51.2319V19.6658Z" fill="#2F2E46"/>
</g>
<mask id="mask2" mask-type="alpha" maskUnits="userSpaceOnUse" x="64" y="5" width="15" height="15">
<path fill-rule="evenodd" clip-rule="evenodd" d="M68.8376 12.6491L64.5261 5.69275H69.5906L71.045 8.76945C71.227 9.11712 71.4607 9.67902 71.4607 9.67902H71.5127C71.5127 9.67902 71.7724 9.11712 71.9283 8.76945L73.3827 5.69275H78.4472L74.1618 12.6491L78.3691 19.4717H73.4344L71.8242 16.3679C71.6946 16.1272 71.5127 15.6725 71.5127 15.6725H71.4607C71.4607 15.6725 71.2787 16.1272 71.1489 16.3679L69.5646 19.4717H64.6303L68.8376 12.6491Z" fill="white"/>
</mask>
<g mask="url(#mask2)">
<path fill-rule="evenodd" clip-rule="evenodd" d="M64.5232 19.4717H78.4468V5.69272H64.5232V19.4717Z" fill="#2F2E46"/>
</g>
<mask id="mask3" mask-type="alpha" maskUnits="userSpaceOnUse" x="78" y="0" width="15" height="20">
<path fill-rule="evenodd" clip-rule="evenodd" d="M85.1403 15.9652C86.489 15.9652 87.7597 14.9476 87.7597 12.5638C87.7597 10.9031 86.904 9.26936 85.1403 9.26936C83.7399 9.26936 82.5208 10.4477 82.5208 12.5638C82.5208 14.6261 83.5842 15.9652 85.1403 15.9652ZM84.103 5.3587C86.8001 5.3587 87.6044 6.45681 87.6044 6.45681H87.6561C87.6561 6.45681 87.6304 6.18934 87.6304 5.84099V0.323456H92.1173V19.4737H87.9154V18.5631C87.9154 18.1349 87.9415 17.7865 87.9415 17.7865H87.8894C87.8894 17.7865 86.7744 19.7952 84.025 19.7952C80.3942 19.7952 78.0081 16.8488 78.0081 12.5637C78.0081 8.19801 80.5498 5.3587 84.103 5.3587Z" fill="white"/>
</mask>
<g mask="url(#mask3)">
<path fill-rule="evenodd" clip-rule="evenodd" d="M78.0046 19.7951H92.1164V0.323364H78.0046V19.7951Z" fill="#00DC5A"/>
</g>
<mask id="mask4" mask-type="alpha" maskUnits="userSpaceOnUse" x="93" y="5" width="16" height="15">
<path fill-rule="evenodd" clip-rule="evenodd" d="M101.022 15.8293C102.645 15.8293 104.037 14.577 104.037 12.5253C104.037 10.447 102.645 9.14119 101.022 9.14119C99.3983 9.14119 98.0066 10.447 98.0066 12.5253C98.0066 14.577 99.3983 15.8293 101.022 15.8293ZM100.996 5.3046C105.196 5.3046 108.547 8.20862 108.547 12.5253C108.547 16.8149 105.196 19.6658 101.022 19.6658C96.8473 19.6658 93.4968 16.8149 93.4968 12.5253C93.4968 8.20862 96.8473 5.3046 100.996 5.3046Z" fill="white"/>
</mask>
<g mask="url(#mask4)">
<path fill-rule="evenodd" clip-rule="evenodd" d="M93.4968 19.6658H108.547V5.3046H93.4968V19.6658Z" fill="#00DC5A"/>
</g>
<mask id="mask5" mask-type="alpha" maskUnits="userSpaceOnUse" x="108" y="5" width="22" height="15">
<path fill-rule="evenodd" clip-rule="evenodd" d="M108.672 5.69275H113.397L115.059 13.8262C115.214 14.5756 115.214 15.2712 115.214 15.2712H115.266C115.266 15.2712 115.318 14.5756 115.5 13.8262L117.343 5.69275H121.185L123.028 13.8262C123.21 14.5756 123.236 15.2712 123.236 15.2712H123.288C123.288 15.2712 123.314 14.5756 123.47 13.8262L125.132 5.69275H129.805L126.066 19.4717H121.055L119.55 13.1041C119.368 12.3551 119.29 11.6323 119.29 11.6323H119.238C119.238 11.6323 119.16 12.3551 118.979 13.1041L117.473 19.4717H112.41L108.672 5.69275Z" fill="white"/>
</mask>
<g mask="url(#mask5)">
<path fill-rule="evenodd" clip-rule="evenodd" d="M108.672 19.4717H129.805V5.69275H108.672V19.4717Z" fill="#00DC5A"/>
</g>
<mask id="mask6" mask-type="alpha" maskUnits="userSpaceOnUse" x="130" y="5" width="15" height="15">
<path fill-rule="evenodd" clip-rule="evenodd" d="M130.871 5.69049H135.176V6.89461C135.176 7.34964 135.124 7.75102 135.124 7.75102H135.176C135.798 6.6807 137.069 5.36926 139.43 5.36926C142.127 5.36926 144.227 6.65386 144.227 10.5342V19.4717H139.741V11.3902C139.741 10.106 139.248 9.5708 138.262 9.5708C136.862 9.5708 136.006 10.3735 135.617 11.5508C135.435 12.0864 135.357 12.7017 135.357 13.3706V19.4717H130.871V5.69049Z" fill="white"/>
</mask>
<g mask="url(#mask6)">
<path fill-rule="evenodd" clip-rule="evenodd" d="M130.867 19.4718H144.226V5.36932H130.867V19.4718Z" fill="#00DC5A"/>
</g>
<mask id="mask7" mask-type="alpha" maskUnits="userSpaceOnUse" x="12" y="0" width="24" height="24">
<path fill-rule="evenodd" clip-rule="evenodd" d="M16.7742 23.6438L13.0355 19.7872C12.5751 19.3122 12.5751 18.5424 13.0355 18.0674L29.326 1.26189C29.7864 0.78689 30.5326 0.78689 30.9927 1.26189L34.7317 5.11878C35.1919 5.59343 35.1919 6.36322 34.7317 6.83822L18.4409 23.6438C17.9805 24.1188 17.2343 24.1188 16.7742 23.6438Z" fill="white"/>
</mask>
<g mask="url(#mask7)">
<path fill-rule="evenodd" clip-rule="evenodd" d="M12.6902 24H35.0768V0.90564H12.6902V24Z" fill="#00DC5A"/>
</g>
<mask id="mask8" mask-type="alpha" maskUnits="userSpaceOnUse" x="6" y="0" width="17" height="18">
<path fill-rule="evenodd" clip-rule="evenodd" d="M10.7462 16.658L6.99429 12.8176C6.5312 12.3435 6.5312 11.575 6.99429 11.1006L17.0494 0.808402C17.5125 0.334374 18.2633 0.334374 18.7264 0.808402L22.4782 4.64888C22.9413 5.12291 22.9413 5.89143 22.4782 6.36546L12.4235 16.658C11.96 17.1321 11.2093 17.1321 10.7462 16.658Z" fill="white"/>
</mask>
<g mask="url(#mask8)">
<path fill-rule="evenodd" clip-rule="evenodd" d="M6.64697 17.0136H22.8256V0.452881H6.64697V17.0136Z" fill="#2F2E46"/>
</g>
<mask id="mask9" mask-type="alpha" maskUnits="userSpaceOnUse" x="0" y="0" width="10" height="11">
<path fill-rule="evenodd" clip-rule="evenodd" d="M4.0628 9.73758L0.343215 5.9004C-0.114405 5.42832 -0.114405 4.66299 0.343215 4.19125L4.0628 0.354065C4.52042 -0.118022 5.26196 -0.118022 5.71958 0.354065L9.43917 4.19125C9.89679 4.66299 9.89679 5.42832 9.43917 5.9004L5.71958 9.73758C5.26196 10.2097 4.52042 10.2097 4.0628 9.73758Z" fill="white"/>
</mask>
<g mask="url(#mask9)">
<path fill-rule="evenodd" clip-rule="evenodd" d="M0 10.0942H9.7824V0H0V10.0942Z" fill="#2F2E46"/>
</g>
<mask id="mask10" mask-type="alpha" maskUnits="userSpaceOnUse" x="146" y="15" width="5" height="5">
<path fill-rule="evenodd" clip-rule="evenodd" d="M148.837 15.0081C150.029 15.0081 151 16.0093 151 17.2399C151 18.4705 150.029 19.4717 148.837 19.4717C147.644 19.4717 146.673 18.4705 146.673 17.2399C146.673 16.0093 147.644 15.0081 148.837 15.0081ZM148.836 15.3514C147.824 15.3514 147.006 16.1951 147.006 17.2399C147.006 18.2847 147.824 19.1283 148.836 19.1283C149.849 19.1283 150.667 18.2847 150.667 17.2399C150.667 16.1951 149.849 15.3514 148.836 15.3514ZM148.171 16.2099H149.019C149.168 16.2099 149.303 16.228 149.403 16.2796C149.503 16.3138 149.587 16.3668 149.637 16.4352C149.704 16.5036 149.735 16.5706 149.752 16.6391C149.769 16.7249 149.783 16.796 149.783 16.8644C149.783 16.9328 149.769 17.0159 149.752 17.0843C149.735 17.1702 149.687 17.2419 149.637 17.2936C149.571 17.362 149.503 17.4096 149.403 17.4438C149.359 17.4592 149.308 17.4746 149.253 17.4867L149.736 18.27H149.403L148.935 17.5135H148.504V18.27H148.171V16.2099ZM148.504 16.4834V17.2238H148.936C149.002 17.2238 149.068 17.2251 149.118 17.2077C149.168 17.1903 149.234 17.1715 149.284 17.154C149.334 17.1198 149.37 17.0876 149.404 17.036C149.437 16.9844 149.45 16.9113 149.45 16.8429C149.45 16.757 149.437 16.7067 149.404 16.6551C149.387 16.6209 149.334 16.5874 149.284 16.5532C149.234 16.519 149.184 16.4995 149.118 16.4995C149.051 16.4821 148.986 16.4834 148.936 16.4834H148.504Z" fill="white"/>
</mask>
<g mask="url(#mask10)">
<path fill-rule="evenodd" clip-rule="evenodd" d="M146.67 19.4717H150.999V15.0081H146.67V19.4717Z" fill="#2F2E46"/>
</g>
</svg>
